# This file uses centimeters as units for non-parametric coordinates.

mtllib cristal.mtl
g default
v 2.053261 3.943392 -0.056670
v -1.992176 3.943392 -0.056657
v 2.053261 6.875458 -0.056670
v -1.992176 6.875458 -0.056657
vt 1.993884 -1.215783
vt 1.993884 2.049761
vt -0.963812 2.049761
vt -0.963812 -1.215783
vn -0.000003 0.000000 -1.000000
vn -0.000003 0.000000 -1.000000
vn -0.000003 0.000000 -1.000000
vn -0.000003 0.000000 -1.000000
s off
g ventana:cristal
usemtl ventana:phong3SG
f 2/1/1 4/2/2 3/3/3 1/4/4
g default
v 2.039343 0.763966 0.172673
v -1.986433 0.763966 0.172686
v 2.039343 3.612104 0.172673
v -1.986433 3.612104 0.172686
vt 1.989686 -2.541287
vt 1.989686 0.630784
vt -0.953635 0.630784
vt -0.953635 -2.541287
vn -0.000003 0.000000 -1.000000
vn -0.000003 0.000000 -1.000000
vn -0.000003 0.000000 -1.000000
vn -0.000003 0.000000 -1.000000
s off
g ventana:cristal1
usemtl ventana:phong3SG
f 6/5/5 8/6/6 7/7/7 5/8/8
