# This file uses centimeters as units for non-parametric coordinates.

mtllib cristal.mtl
g default
v 9.455203 10.298486 -20.736387
v 12.454570 4.362362 -20.736387
v 9.455203 4.362362 -20.736387
v 12.454570 10.298486 -20.736387
vt 0.000000 0.000000
vt 0.000000 0.000000
vt 0.000000 0.000000
vt 0.000000 0.000000
vn -0.000000 0.000000 -1.000000
vn -0.000000 0.000000 -1.000000
vn -0.000000 0.000000 -1.000000
vn -0.000000 0.000000 -1.000000
s off
g Door_cristal Door_1
usemtl phong5SG
f 1/1/1 4/2/2 2/3/3 3/4/4
