# This file uses centimeters as units for non-parametric coordinates.

mtllib Archivero.mtl
g default
v 1.661052 -0.011119 6.557067
v 1.661052 -0.011119 2.125173
v 1.661052 6.271500 6.557067
v 1.661052 6.271500 2.125173
v -2.021093 6.271500 6.557067
v -2.021093 6.271500 2.125173
v -2.021093 -0.011119 6.557067
v -2.021093 -0.011119 2.125173
v 0.390298 1.485323 1.770358
v 0.390298 1.485323 1.618261
v 0.390298 1.622449 1.770358
v 0.390298 1.622449 1.618261
v -0.770588 1.622449 1.770358
v -0.770588 1.622449 1.618261
v -0.770588 1.485323 1.770358
v -0.770588 1.485323 1.618261
v 0.283885 1.622449 1.618261
v 0.283885 1.622449 1.770358
v 0.283885 1.485323 1.770358
v 0.283885 1.485323 1.618261
v -0.662241 1.622449 1.618261
v -0.662241 1.622449 1.770358
v -0.662241 1.485323 1.770358
v -0.662241 1.485323 1.618261
v 0.283885 1.485323 1.960620
v 0.390298 1.485323 1.960620
v 0.390298 1.622449 1.960620
v 0.283885 1.622449 1.960620
v -0.770588 1.485323 1.960620
v -0.662241 1.485323 1.960620
v -0.662241 1.622449 1.960620
v -0.770588 1.622449 1.960620
v 1.485646 2.451946 2.076484
v 1.485646 2.451946 1.924383
v 1.485646 3.982752 2.076484
v 1.485646 3.982752 1.924383
v -1.731662 3.982752 2.076484
v -1.731662 3.982752 1.924383
v -1.731662 2.451946 2.076484
v -1.731662 2.451946 1.924383
v 0.390298 3.341716 1.770358
v 0.390298 3.341716 1.618261
v 0.390298 3.478842 1.770358
v 0.390298 3.478842 1.618261
v -0.770588 3.478842 1.770358
v -0.770588 3.478842 1.618261
v -0.770588 3.341716 1.770358
v -0.770588 3.341716 1.618261
v 0.283885 3.478842 1.618261
v 0.283885 3.478842 1.770358
v 0.283885 3.341716 1.770358
v 0.283885 3.341716 1.618261
v -0.662241 3.478842 1.618261
v -0.662241 3.478842 1.770358
v -0.662241 3.341716 1.770358
v -0.662241 3.341716 1.618261
v 0.283885 3.341716 1.960620
v 0.390298 3.341716 1.960620
v 0.390298 3.478842 1.960620
v 0.283885 3.478842 1.960620
v -0.770588 3.341716 1.960620
v -0.662241 3.341716 1.960620
v -0.662241 3.478842 1.960620
v -0.770588 3.478842 1.960620
v 1.485646 4.486987 2.076484
v 1.485646 4.486987 1.924383
v 1.485646 6.017796 2.076484
v 1.485646 6.017796 1.924383
v -1.731662 6.017796 2.076484
v -1.731662 6.017796 1.924383
v -1.731662 4.486987 2.076484
v -1.731662 4.486987 1.924383
v 1.485646 0.446492 2.076484
v 1.485646 0.446492 1.924383
v 1.485646 1.977301 2.076484
v 1.485646 1.977301 1.924383
v -1.731662 1.977301 2.076484
v -1.731662 1.977301 1.924383
v -1.731662 0.446492 2.076484
v -1.731662 0.446492 1.924383
v 0.390298 5.445585 1.770358
v 0.390298 5.445585 1.618261
v 0.390298 5.582711 1.770358
v 0.390298 5.582711 1.618261
v -0.770588 5.582711 1.770358
v -0.770588 5.582711 1.618261
v -0.770588 5.445585 1.770358
v -0.770588 5.445585 1.618261
v 0.283885 5.582711 1.618261
v 0.283885 5.582711 1.770358
v 0.283885 5.445585 1.770358
v 0.283885 5.445585 1.618261
v -0.662241 5.582711 1.618261
v -0.662241 5.582711 1.770358
v -0.662241 5.445585 1.770358
v -0.662241 5.445585 1.618261
v 0.283885 5.445585 1.960620
v 0.390298 5.445585 1.960620
v 0.390298 5.582711 1.960620
v 0.283885 5.582711 1.960620
v -0.770588 5.445585 1.960620
v -0.662241 5.445585 1.960620
v -0.662241 5.582711 1.960620
v -0.770588 5.582711 1.960620
vt 0.375000 0.000000
vt 0.625000 0.000000
vt 0.625000 0.250000
vt 0.375000 0.250000
vt 0.625000 0.500000
vt 0.375000 0.500000
vt 0.625000 0.750000
vt 0.375000 0.750000
vt 0.625000 1.000000
vt 0.375000 1.000000
vt 0.875000 0.000000
vt 0.875000 0.250000
vt 0.125000 0.000000
vt 0.125000 0.250000
vt 0.375000 0.000000
vt 0.625000 0.000000
vt 0.625000 0.250000
vt 0.375000 0.250000
vt 0.625000 0.272916
vt 0.375000 0.272916
vt 0.375000 0.500000
vt 0.625000 0.500000
vt 0.625000 0.750000
vt 0.375000 0.750000
vt 0.375000 0.977084
vt 0.625000 0.977084
vt 0.625000 1.000000
vt 0.375000 1.000000
vt 0.647916 0.000000
vt 0.647916 0.250000
vt 0.352084 0.000000
vt 0.375000 0.000000
vt 0.375000 0.250000
vt 0.352084 0.250000
vt 0.625000 0.477266
vt 0.375000 0.477266
vt 0.147734 0.000000
vt 0.352084 0.000000
vt 0.352084 0.250000
vt 0.147734 0.250000
vt 0.375000 0.772734
vt 0.625000 0.772734
vt 0.852265 0.000000
vt 0.852265 0.250000
vt 0.125000 0.000000
vt 0.147734 0.000000
vt 0.147734 0.250000
vt 0.125000 0.250000
vt 0.875000 0.000000
vt 0.875000 0.250000
vt 0.125000 0.000000
vt 0.125000 0.250000
vt 0.375000 0.000000
vt 0.625000 0.000000
vt 0.625000 0.250000
vt 0.375000 0.250000
vt 0.625000 0.500000
vt 0.375000 0.500000
vt 0.625000 0.750000
vt 0.375000 0.750000
vt 0.625000 1.000000
vt 0.375000 1.000000
vt 0.875000 0.000000
vt 0.875000 0.250000
vt 0.125000 0.000000
vt 0.125000 0.250000
vt 0.375000 0.000000
vt 0.625000 0.000000
vt 0.625000 0.250000
vt 0.375000 0.250000
vt 0.625000 0.272916
vt 0.375000 0.272916
vt 0.375000 0.500000
vt 0.625000 0.500000
vt 0.625000 0.750000
vt 0.375000 0.750000
vt 0.375000 0.977084
vt 0.625000 0.977084
vt 0.625000 1.000000
vt 0.375000 1.000000
vt 0.647916 0.000000
vt 0.647916 0.250000
vt 0.352084 0.000000
vt 0.375000 0.000000
vt 0.375000 0.250000
vt 0.352084 0.250000
vt 0.625000 0.477266
vt 0.375000 0.477266
vt 0.147734 0.000000
vt 0.352084 0.000000
vt 0.352084 0.250000
vt 0.147734 0.250000
vt 0.375000 0.772734
vt 0.625000 0.772734
vt 0.852265 0.000000
vt 0.852265 0.250000
vt 0.125000 0.000000
vt 0.147734 0.000000
vt 0.147734 0.250000
vt 0.125000 0.250000
vt 0.875000 0.000000
vt 0.875000 0.250000
vt 0.125000 0.000000
vt 0.125000 0.250000
vt 0.375000 0.000000
vt 0.625000 0.000000
vt 0.625000 0.250000
vt 0.375000 0.250000
vt 0.625000 0.500000
vt 0.375000 0.500000
vt 0.625000 0.750000
vt 0.375000 0.750000
vt 0.625000 1.000000
vt 0.375000 1.000000
vt 0.875000 0.000000
vt 0.875000 0.250000
vt 0.125000 0.000000
vt 0.125000 0.250000
vt 0.375000 0.000000
vt 0.625000 0.000000
vt 0.625000 0.250000
vt 0.375000 0.250000
vt 0.625000 0.500000
vt 0.375000 0.500000
vt 0.625000 0.750000
vt 0.375000 0.750000
vt 0.625000 1.000000
vt 0.375000 1.000000
vt 0.875000 0.000000
vt 0.875000 0.250000
vt 0.125000 0.000000
vt 0.125000 0.250000
vt 0.375000 0.000000
vt 0.625000 0.000000
vt 0.625000 0.250000
vt 0.375000 0.250000
vt 0.625000 0.272916
vt 0.375000 0.272916
vt 0.375000 0.500000
vt 0.625000 0.500000
vt 0.625000 0.750000
vt 0.375000 0.750000
vt 0.375000 0.977084
vt 0.625000 0.977084
vt 0.625000 1.000000
vt 0.375000 1.000000
vt 0.647916 0.000000
vt 0.647916 0.250000
vt 0.352084 0.000000
vt 0.375000 0.000000
vt 0.375000 0.250000
vt 0.352084 0.250000
vt 0.625000 0.477266
vt 0.375000 0.477266
vt 0.147734 0.000000
vt 0.352084 0.000000
vt 0.352084 0.250000
vt 0.147734 0.250000
vt 0.375000 0.772734
vt 0.625000 0.772734
vt 0.852265 0.000000
vt 0.852265 0.250000
vt 0.125000 0.000000
vt 0.147734 0.000000
vt 0.147734 0.250000
vt 0.125000 0.250000
vt 0.875000 0.000000
vt 0.875000 0.250000
vt 0.125000 0.000000
vt 0.125000 0.250000
vn 1.000000 0.000000 0.000000
vn 1.000000 0.000000 0.000000
vn 1.000000 0.000000 0.000000
vn 1.000000 0.000000 0.000000
vn 0.000000 1.000000 0.000000
vn 0.000000 1.000000 0.000000
vn 0.000000 1.000000 0.000000
vn 0.000000 1.000000 0.000000
vn -1.000000 0.000000 -0.000000
vn -1.000000 0.000000 -0.000000
vn -1.000000 0.000000 -0.000000
vn -1.000000 0.000000 -0.000000
vn 0.000000 -1.000000 0.000000
vn 0.000000 -1.000000 0.000000
vn 0.000000 -1.000000 0.000000
vn 0.000000 -1.000000 0.000000
vn 0.000000 0.000000 -1.000000
vn 0.000000 0.000000 -1.000000
vn 0.000000 0.000000 -1.000000
vn 0.000000 0.000000 -1.000000
vn 0.000000 0.000000 1.000000
vn 0.000000 0.000000 1.000000
vn 0.000000 0.000000 1.000000
vn 0.000000 0.000000 1.000000
vn 1.000000 0.000000 0.000000
vn 1.000000 0.000000 0.000000
vn 1.000000 0.000000 0.000000
vn 1.000000 0.000000 0.000000
vn 0.000000 1.000000 0.000000
vn 0.000000 1.000000 0.000000
vn 0.000000 1.000000 0.000000
vn 0.000000 1.000000 0.000000
vn -1.000000 0.000000 -0.000000
vn -1.000000 0.000000 -0.000000
vn -1.000000 0.000000 -0.000000
vn -1.000000 0.000000 -0.000000
vn 0.000000 -1.000000 0.000000
vn 0.000000 -1.000000 0.000000
vn 0.000000 -1.000000 0.000000
vn 0.000000 -1.000000 0.000000
vn 0.000000 0.000000 -1.000000
vn 0.000000 0.000000 -1.000000
vn 0.000000 0.000000 -1.000000
vn 0.000000 0.000000 -1.000000
vn 0.000000 0.000000 1.000000
vn 0.000000 0.000000 1.000000
vn 0.000000 0.000000 1.000000
vn 0.000000 0.000000 1.000000
vn 0.000000 1.000000 0.000000
vn 0.000000 1.000000 0.000000
vn 0.000000 1.000000 0.000000
vn 0.000000 1.000000 0.000000
vn 0.000000 0.000000 1.000000
vn 0.000000 0.000000 1.000000
vn 0.000000 0.000000 1.000000
vn 0.000000 0.000000 1.000000
vn 0.000000 -1.000000 0.000000
vn 0.000000 -1.000000 0.000000
vn 0.000000 -1.000000 0.000000
vn 0.000000 -1.000000 0.000000
vn 0.000000 0.000000 -1.000000
vn 0.000000 0.000000 -1.000000
vn 0.000000 0.000000 -1.000000
vn 0.000000 0.000000 -1.000000
vn 0.000000 1.000000 0.000000
vn 0.000000 1.000000 0.000000
vn 0.000000 1.000000 0.000000
vn 0.000000 1.000000 0.000000
vn 0.000000 0.000000 1.000000
vn 0.000000 0.000000 1.000000
vn 0.000000 0.000000 1.000000
vn 0.000000 0.000000 1.000000
vn 0.000000 -1.000000 0.000000
vn 0.000000 -1.000000 0.000000
vn 0.000000 -1.000000 0.000000
vn 0.000000 -1.000000 0.000000
vn 0.000000 0.000000 -1.000000
vn 0.000000 0.000000 -1.000000
vn 0.000000 0.000000 -1.000000
vn 0.000000 0.000000 -1.000000
vn 0.000000 -1.000000 0.000000
vn 0.000000 -1.000000 0.000000
vn 0.000000 -1.000000 0.000000
vn 0.000000 -1.000000 0.000000
vn 1.000000 0.000000 0.000000
vn 1.000000 0.000000 0.000000
vn 1.000000 0.000000 0.000000
vn 1.000000 0.000000 0.000000
vn 0.000000 1.000000 0.000000
vn 0.000000 1.000000 0.000000
vn 0.000000 1.000000 0.000000
vn 0.000000 1.000000 0.000000
vn -1.000000 0.000000 -0.000000
vn -1.000000 0.000000 -0.000000
vn -1.000000 0.000000 -0.000000
vn -1.000000 0.000000 -0.000000
vn 0.000000 -1.000000 0.000000
vn 0.000000 -1.000000 0.000000
vn 0.000000 -1.000000 0.000000
vn 0.000000 -1.000000 0.000000
vn 1.000000 0.000000 0.000000
vn 1.000000 0.000000 0.000000
vn 1.000000 0.000000 0.000000
vn 1.000000 0.000000 0.000000
vn 0.000000 1.000000 0.000000
vn 0.000000 1.000000 0.000000
vn 0.000000 1.000000 0.000000
vn 0.000000 1.000000 0.000000
vn -1.000000 0.000000 -0.000000
vn -1.000000 0.000000 -0.000000
vn -1.000000 0.000000 -0.000000
vn -1.000000 0.000000 -0.000000
vn 1.000000 0.000000 0.000000
vn 1.000000 0.000000 0.000000
vn 1.000000 0.000000 0.000000
vn 1.000000 0.000000 0.000000
vn 0.000000 1.000000 0.000000
vn 0.000000 1.000000 0.000000
vn 0.000000 1.000000 0.000000
vn 0.000000 1.000000 0.000000
vn -1.000000 0.000000 -0.000000
vn -1.000000 0.000000 -0.000000
vn -1.000000 0.000000 -0.000000
vn -1.000000 0.000000 -0.000000
vn 0.000000 -1.000000 0.000000
vn 0.000000 -1.000000 0.000000
vn 0.000000 -1.000000 0.000000
vn 0.000000 -1.000000 0.000000
vn 0.000000 0.000000 -1.000000
vn 0.000000 0.000000 -1.000000
vn 0.000000 0.000000 -1.000000
vn 0.000000 0.000000 -1.000000
vn 0.000000 0.000000 1.000000
vn 0.000000 0.000000 1.000000
vn 0.000000 0.000000 1.000000
vn 0.000000 0.000000 1.000000
vn 1.000000 0.000000 0.000000
vn 1.000000 0.000000 0.000000
vn 1.000000 0.000000 0.000000
vn 1.000000 0.000000 0.000000
vn 0.000000 1.000000 0.000000
vn 0.000000 1.000000 0.000000
vn 0.000000 1.000000 0.000000
vn 0.000000 1.000000 0.000000
vn -1.000000 0.000000 -0.000000
vn -1.000000 0.000000 -0.000000
vn -1.000000 0.000000 -0.000000
vn -1.000000 0.000000 -0.000000
vn 0.000000 -1.000000 0.000000
vn 0.000000 -1.000000 0.000000
vn 0.000000 -1.000000 0.000000
vn 0.000000 -1.000000 0.000000
vn 0.000000 0.000000 -1.000000
vn 0.000000 0.000000 -1.000000
vn 0.000000 0.000000 -1.000000
vn 0.000000 0.000000 -1.000000
vn 0.000000 0.000000 1.000000
vn 0.000000 0.000000 1.000000
vn 0.000000 0.000000 1.000000
vn 0.000000 0.000000 1.000000
vn 0.000000 1.000000 0.000000
vn 0.000000 1.000000 0.000000
vn 0.000000 1.000000 0.000000
vn 0.000000 1.000000 0.000000
vn 0.000000 0.000000 1.000000
vn 0.000000 0.000000 1.000000
vn 0.000000 0.000000 1.000000
vn 0.000000 0.000000 1.000000
vn 0.000000 -1.000000 0.000000
vn 0.000000 -1.000000 0.000000
vn 0.000000 -1.000000 0.000000
vn 0.000000 -1.000000 0.000000
vn 0.000000 0.000000 -1.000000
vn 0.000000 0.000000 -1.000000
vn 0.000000 0.000000 -1.000000
vn 0.000000 0.000000 -1.000000
vn 0.000000 1.000000 0.000000
vn 0.000000 1.000000 0.000000
vn 0.000000 1.000000 0.000000
vn 0.000000 1.000000 0.000000
vn 0.000000 0.000000 1.000000
vn 0.000000 0.000000 1.000000
vn 0.000000 0.000000 1.000000
vn 0.000000 0.000000 1.000000
vn 0.000000 -1.000000 0.000000
vn 0.000000 -1.000000 0.000000
vn 0.000000 -1.000000 0.000000
vn 0.000000 -1.000000 0.000000
vn 0.000000 0.000000 -1.000000
vn 0.000000 0.000000 -1.000000
vn 0.000000 0.000000 -1.000000
vn 0.000000 0.000000 -1.000000
vn 0.000000 -1.000000 0.000000
vn 0.000000 -1.000000 0.000000
vn 0.000000 -1.000000 0.000000
vn 0.000000 -1.000000 0.000000
vn 1.000000 0.000000 0.000000
vn 1.000000 0.000000 0.000000
vn 1.000000 0.000000 0.000000
vn 1.000000 0.000000 0.000000
vn 0.000000 1.000000 0.000000
vn 0.000000 1.000000 0.000000
vn 0.000000 1.000000 0.000000
vn 0.000000 1.000000 0.000000
vn -1.000000 0.000000 -0.000000
vn -1.000000 0.000000 -0.000000
vn -1.000000 0.000000 -0.000000
vn -1.000000 0.000000 -0.000000
vn 0.000000 -1.000000 0.000000
vn 0.000000 -1.000000 0.000000
vn 0.000000 -1.000000 0.000000
vn 0.000000 -1.000000 0.000000
vn 1.000000 0.000000 0.000000
vn 1.000000 0.000000 0.000000
vn 1.000000 0.000000 0.000000
vn 1.000000 0.000000 0.000000
vn 0.000000 1.000000 0.000000
vn 0.000000 1.000000 0.000000
vn 0.000000 1.000000 0.000000
vn 0.000000 1.000000 0.000000
vn -1.000000 0.000000 -0.000000
vn -1.000000 0.000000 -0.000000
vn -1.000000 0.000000 -0.000000
vn -1.000000 0.000000 -0.000000
vn 1.000000 0.000000 0.000000
vn 1.000000 0.000000 0.000000
vn 1.000000 0.000000 0.000000
vn 1.000000 0.000000 0.000000
vn 0.000000 1.000000 0.000000
vn 0.000000 1.000000 0.000000
vn 0.000000 1.000000 0.000000
vn 0.000000 1.000000 0.000000
vn -1.000000 0.000000 -0.000000
vn -1.000000 0.000000 -0.000000
vn -1.000000 0.000000 -0.000000
vn -1.000000 0.000000 -0.000000
vn 0.000000 -1.000000 0.000000
vn 0.000000 -1.000000 0.000000
vn 0.000000 -1.000000 0.000000
vn 0.000000 -1.000000 0.000000
vn 0.000000 0.000000 -1.000000
vn 0.000000 0.000000 -1.000000
vn 0.000000 0.000000 -1.000000
vn 0.000000 0.000000 -1.000000
vn 0.000000 0.000000 1.000000
vn 0.000000 0.000000 1.000000
vn 0.000000 0.000000 1.000000
vn 0.000000 0.000000 1.000000
vn 1.000000 0.000000 0.000000
vn 1.000000 0.000000 0.000000
vn 1.000000 0.000000 0.000000
vn 1.000000 0.000000 0.000000
vn 0.000000 1.000000 0.000000
vn 0.000000 1.000000 0.000000
vn 0.000000 1.000000 0.000000
vn 0.000000 1.000000 0.000000
vn -1.000000 0.000000 -0.000000
vn -1.000000 0.000000 -0.000000
vn -1.000000 0.000000 -0.000000
vn -1.000000 0.000000 -0.000000
vn 0.000000 -1.000000 0.000000
vn 0.000000 -1.000000 0.000000
vn 0.000000 -1.000000 0.000000
vn 0.000000 -1.000000 0.000000
vn 0.000000 0.000000 -1.000000
vn 0.000000 0.000000 -1.000000
vn 0.000000 0.000000 -1.000000
vn 0.000000 0.000000 -1.000000
vn 0.000000 0.000000 1.000000
vn 0.000000 0.000000 1.000000
vn 0.000000 0.000000 1.000000
vn 0.000000 0.000000 1.000000
vn 1.000000 0.000000 0.000000
vn 1.000000 0.000000 0.000000
vn 1.000000 0.000000 0.000000
vn 1.000000 0.000000 0.000000
vn 0.000000 1.000000 0.000000
vn 0.000000 1.000000 0.000000
vn 0.000000 1.000000 0.000000
vn 0.000000 1.000000 0.000000
vn -1.000000 0.000000 -0.000000
vn -1.000000 0.000000 -0.000000
vn -1.000000 0.000000 -0.000000
vn -1.000000 0.000000 -0.000000
vn 0.000000 -1.000000 0.000000
vn 0.000000 -1.000000 0.000000
vn 0.000000 -1.000000 0.000000
vn 0.000000 -1.000000 0.000000
vn 0.000000 0.000000 -1.000000
vn 0.000000 0.000000 -1.000000
vn 0.000000 0.000000 -1.000000
vn 0.000000 0.000000 -1.000000
vn 0.000000 0.000000 1.000000
vn 0.000000 0.000000 1.000000
vn 0.000000 0.000000 1.000000
vn 0.000000 0.000000 1.000000
vn 0.000000 1.000000 0.000000
vn 0.000000 1.000000 0.000000
vn 0.000000 1.000000 0.000000
vn 0.000000 1.000000 0.000000
vn 0.000000 0.000000 1.000000
vn 0.000000 0.000000 1.000000
vn 0.000000 0.000000 1.000000
vn 0.000000 0.000000 1.000000
vn 0.000000 -1.000000 0.000000
vn 0.000000 -1.000000 0.000000
vn 0.000000 -1.000000 0.000000
vn 0.000000 -1.000000 0.000000
vn 0.000000 0.000000 -1.000000
vn 0.000000 0.000000 -1.000000
vn 0.000000 0.000000 -1.000000
vn 0.000000 0.000000 -1.000000
vn 0.000000 1.000000 0.000000
vn 0.000000 1.000000 0.000000
vn 0.000000 1.000000 0.000000
vn 0.000000 1.000000 0.000000
vn 0.000000 0.000000 1.000000
vn 0.000000 0.000000 1.000000
vn 0.000000 0.000000 1.000000
vn 0.000000 0.000000 1.000000
vn 0.000000 -1.000000 0.000000
vn 0.000000 -1.000000 0.000000
vn 0.000000 -1.000000 0.000000
vn 0.000000 -1.000000 0.000000
vn 0.000000 0.000000 -1.000000
vn 0.000000 0.000000 -1.000000
vn 0.000000 0.000000 -1.000000
vn 0.000000 0.000000 -1.000000
vn 0.000000 -1.000000 0.000000
vn 0.000000 -1.000000 0.000000
vn 0.000000 -1.000000 0.000000
vn 0.000000 -1.000000 0.000000
vn 1.000000 0.000000 0.000000
vn 1.000000 0.000000 0.000000
vn 1.000000 0.000000 0.000000
vn 1.000000 0.000000 0.000000
vn 0.000000 1.000000 0.000000
vn 0.000000 1.000000 0.000000
vn 0.000000 1.000000 0.000000
vn 0.000000 1.000000 0.000000
vn -1.000000 0.000000 -0.000000
vn -1.000000 0.000000 -0.000000
vn -1.000000 0.000000 -0.000000
vn -1.000000 0.000000 -0.000000
vn 0.000000 -1.000000 0.000000
vn 0.000000 -1.000000 0.000000
vn 0.000000 -1.000000 0.000000
vn 0.000000 -1.000000 0.000000
vn 1.000000 0.000000 0.000000
vn 1.000000 0.000000 0.000000
vn 1.000000 0.000000 0.000000
vn 1.000000 0.000000 0.000000
vn 0.000000 1.000000 0.000000
vn 0.000000 1.000000 0.000000
vn 0.000000 1.000000 0.000000
vn 0.000000 1.000000 0.000000
vn -1.000000 0.000000 -0.000000
vn -1.000000 0.000000 -0.000000
vn -1.000000 0.000000 -0.000000
vn -1.000000 0.000000 -0.000000
s off
g Archivero:pCube21
usemtl Archivero:lambert8SG
f 1/1/1 2/2/2 4/3/3 3/4/4
f 3/4/5 4/3/6 6/5/7 5/6/8
f 5/6/9 6/5/10 8/7/11 7/8/12
f 7/8/13 8/7/14 2/9/15 1/10/16
f 2/2/17 8/11/18 6/12/19 4/3/20
f 7/13/21 1/1/22 3/4/23 5/14/24
usemtl Archivero:lambert10SG
f 9/15/25 10/16/26 12/17/27 11/18/28
f 11/18/29 12/17/30 17/19/31 18/20/32
f 13/21/33 14/22/34 16/23/35 15/24/36
f 19/25/37 20/26/38 10/27/39 9/28/40
f 10/16/41 20/29/42 17/30/43 12/17/44
f 25/31/45 26/32/46 27/33/47 28/34/48
f 18/20/49 17/19/50 21/35/51 22/36/52
f 23/37/53 19/38/54 18/39/55 22/40/56
f 23/41/57 24/42/58 20/26/59 19/25/60
f 17/30/61 20/29/62 24/43/63 21/44/64
f 22/36/65 21/35/66 14/22/67 13/21/68
f 29/45/69 30/46/70 31/47/71 32/48/72
f 15/24/73 16/23/74 24/42/75 23/41/76
f 21/44/77 24/43/78 16/49/79 14/50/80
f 19/38/81 9/15/82 26/32/83 25/31/84
f 9/15/85 11/18/86 27/33/87 26/32/88
f 11/18/89 18/39/90 28/34/91 27/33/92
f 18/39/93 19/38/94 25/31/95 28/34/96
f 15/51/97 23/37/98 30/46/99 29/45/100
f 23/37/101 22/40/102 31/47/103 30/46/104
f 22/40/105 13/52/106 32/48/107 31/47/108
f 13/52/109 15/51/110 29/45/111 32/48/112
usemtl Archivero:lambert9SG2
f 33/53/113 34/54/114 36/55/115 35/56/116
f 35/56/117 36/55/118 38/57/119 37/58/120
f 37/58/121 38/57/122 40/59/123 39/60/124
f 39/60/125 40/59/126 34/61/127 33/62/128
f 34/54/129 40/63/130 38/64/131 36/55/132
f 39/65/133 33/53/134 35/56/135 37/66/136
usemtl Archivero:lambert10SG4
f 41/67/137 42/68/138 44/69/139 43/70/140
f 43/70/141 44/69/142 49/71/143 50/72/144
f 45/73/145 46/74/146 48/75/147 47/76/148
f 51/77/149 52/78/150 42/79/151 41/80/152
f 42/68/153 52/81/154 49/82/155 44/69/156
f 57/83/157 58/84/158 59/85/159 60/86/160
f 50/72/161 49/71/162 53/87/163 54/88/164
f 55/89/165 51/90/166 50/91/167 54/92/168
f 55/93/169 56/94/170 52/78/171 51/77/172
f 49/82/173 52/81/174 56/95/175 53/96/176
f 54/88/177 53/87/178 46/74/179 45/73/180
f 61/97/181 62/98/182 63/99/183 64/100/184
f 47/76/185 48/75/186 56/94/187 55/93/188
f 53/96/189 56/95/190 48/101/191 46/102/192
f 51/90/193 41/67/194 58/84/195 57/83/196
f 41/67/197 43/70/198 59/85/199 58/84/200
f 43/70/201 50/91/202 60/86/203 59/85/204
f 50/91/205 51/90/206 57/83/207 60/86/208
f 47/103/209 55/89/210 62/98/211 61/97/212
f 55/89/213 54/92/214 63/99/215 62/98/216
f 54/92/217 45/104/218 64/100/219 63/99/220
f 45/104/221 47/103/222 61/97/223 64/100/224
usemtl Archivero:lambert9SG
f 65/105/225 66/106/226 68/107/227 67/108/228
f 67/108/229 68/107/230 70/109/231 69/110/232
f 69/110/233 70/109/234 72/111/235 71/112/236
f 71/112/237 72/111/238 66/113/239 65/114/240
f 66/106/241 72/115/242 70/116/243 68/107/244
f 71/117/245 65/105/246 67/108/247 69/118/248
usemtl Archivero:lambert9SG4
f 73/119/249 74/120/250 76/121/251 75/122/252
f 75/122/253 76/121/254 78/123/255 77/124/256
f 77/124/257 78/123/258 80/125/259 79/126/260
f 79/126/261 80/125/262 74/127/263 73/128/264
f 74/120/265 80/129/266 78/130/267 76/121/268
f 79/131/269 73/119/270 75/122/271 77/132/272
usemtl Archivero:lambert10SG2
f 81/133/273 82/134/274 84/135/275 83/136/276
f 83/136/277 84/135/278 89/137/279 90/138/280
f 85/139/281 86/140/282 88/141/283 87/142/284
f 91/143/285 92/144/286 82/145/287 81/146/288
f 82/134/289 92/147/290 89/148/291 84/135/292
f 97/149/293 98/150/294 99/151/295 100/152/296
f 90/138/297 89/137/298 93/153/299 94/154/300
f 95/155/301 91/156/302 90/157/303 94/158/304
f 95/159/305 96/160/306 92/144/307 91/143/308
f 89/148/309 92/147/310 96/161/311 93/162/312
f 94/154/313 93/153/314 86/140/315 85/139/316
f 101/163/317 102/164/318 103/165/319 104/166/320
f 87/142/321 88/141/322 96/160/323 95/159/324
f 93/162/325 96/161/326 88/167/327 86/168/328
f 91/156/329 81/133/330 98/150/331 97/149/332
f 81/133/333 83/136/334 99/151/335 98/150/336
f 83/136/337 90/157/338 100/152/339 99/151/340
f 90/157/341 91/156/342 97/149/343 100/152/344
f 87/169/345 95/155/346 102/164/347 101/163/348
f 95/155/349 94/158/350 103/165/351 102/164/352
f 94/158/353 85/170/354 104/166/355 103/165/356
f 85/170/357 87/169/358 101/163/359 104/166/360
